<svg width="139" height="17" fill="none" xmlns="http://www.w3.org/2000/svg"><path d="M32.19 6.17H20.54l-.42.33v10.17h3.2v-3.83l.3-.29h8.57c2.17 0 3.16-.57 3.16-2.04V8.17c0-1.43-1-2-3.16-2Zm0 3.75c0 .7-.46.81-1.5.81h-7.02l-.33-.28V8.29l.3-.28h7.07c1 0 1.5.12 1.5.8v1.1l-.02.01ZM41.28 8.09l2.79 4-.17.37h-6.16l-1.59 1.92h9.17l.66.37 1.42 1.92h3.7L43 6.05M78.05 14.62v-2.86l.34-.28h6.2v-1.8h-9.82v6.99h14.49v-1.8H78.43M89.39 6.17H74.77v1.96h14.62V6.17ZM58.48 8.05h11.79c-.17-1.47-1.13-1.89-3.46-1.89h-8.45c-2.67 0-3.5.5-3.5 2.5v5.55c0 1.96.82 2.5 3.5 2.5h8.44c2.38 0 3.3-.45 3.38-1.97h-11.7l-.34-.32V8.29M12.2 10.25H3.68l-.25-.28v-1.8l.25-.2H15.2l.17-.37c-.37-.98-1.42-1.47-3.3-1.47H4.04c-2.66 0-3.5.49-3.5 2.49V9.8c0 1.96.83 2.5 3.5 2.5h8.54l.25.24v1.89l-.2.28H.28s-.29.17-.29.2c.2 1.4 1.17 1.76 3.46 1.76h8.75c2.66 0 3.54-.49 3.54-2.49v-1.44c0-1.96-.88-2.49-3.54-2.49ZM98.6 6.13h-4.84l-.25.49 5.33 3.84c1-.58 2.12-1.15 3.3-1.72M102.92 13.32l4.7 3.35h4.84l.21-.45-7-5.03c-.92.7-1.87 1.4-2.74 2.13" fill="#fff"/><path d="M97.88 16.67h-4.37l-.37-.58c2.95-2.82 16.2-14.81 44.98-16.09 0 0-24.12.8-40.24 16.67Z" fill="#B2B0B2"/></svg>